<svg width="16" height="17" viewBox="0 0 16 17" fill="none" xmlns="http://www.w3.org/2000/svg">
<path d="M6.68667 6.48003C6.59188 6.39171 6.46652 6.34363 6.33699 6.34591C6.20745 6.3482 6.08386 6.40068 5.99225 6.49228C5.90064 6.58389 5.84817 6.70748 5.84588 6.83702C5.8436 6.96655 5.89168 7.09191 5.98 7.1867L7.29333 8.50003L5.98 9.81336C5.93088 9.85914 5.89147 9.91434 5.86415 9.97567C5.83682 10.037 5.82212 10.1032 5.82094 10.1704C5.81976 10.2375 5.83211 10.3042 5.85725 10.3664C5.8824 10.4287 5.91983 10.4852 5.96731 10.5327C6.01479 10.5802 6.07134 10.6176 6.1336 10.6428C6.19586 10.6679 6.26255 10.6803 6.32968 10.6791C6.39682 10.6779 6.46303 10.6632 6.52436 10.6359C6.58569 10.6086 6.64089 10.5692 6.68667 10.52L8 9.2067L9.31333 10.52C9.40812 10.6084 9.53348 10.6564 9.66302 10.6541C9.79255 10.6519 9.91614 10.5994 10.0077 10.5078C10.0994 10.4162 10.1518 10.2926 10.1541 10.163C10.1564 10.0335 10.1083 9.90815 10.02 9.81336L8.70667 8.50003L10.02 7.1867C10.0691 7.14092 10.1085 7.08572 10.1359 7.02439C10.1632 6.96306 10.1779 6.89685 10.1791 6.82971C10.1802 6.76258 10.1679 6.69589 10.1427 6.63363C10.1176 6.57137 10.0802 6.51482 10.0327 6.46734C9.98521 6.41986 9.92866 6.38243 9.8664 6.35728C9.80414 6.33214 9.73745 6.31979 9.67032 6.32097C9.60318 6.32215 9.53698 6.33685 9.47564 6.36418C9.41431 6.39151 9.35911 6.43091 9.31333 6.48003L8 7.79336L6.68667 6.48003Z" fill="#1F509A"/>
<path fill-rule="evenodd" clip-rule="evenodd" d="M8 1.33337C4.042 1.33337 0.833328 4.54204 0.833328 8.50004C0.833328 12.458 4.042 15.6667 8 15.6667C11.958 15.6667 15.1667 12.458 15.1667 8.50004C15.1667 4.54204 11.958 1.33337 8 1.33337ZM1.83333 8.50004C1.83333 6.86454 2.48303 5.29602 3.6395 4.13955C4.79598 2.98307 6.36449 2.33337 8 2.33337C9.6355 2.33337 11.204 2.98307 12.3605 4.13955C13.517 5.29602 14.1667 6.86454 14.1667 8.50004C14.1667 10.1355 13.517 11.7041 12.3605 12.8605C11.204 14.017 9.6355 14.6667 8 14.6667C6.36449 14.6667 4.79598 14.017 3.6395 12.8605C2.48303 11.7041 1.83333 10.1355 1.83333 8.50004Z" fill="#1F509A"/>
</svg>
